<svg width="30" height="30" viewBox="0 0 30 30" fill="none" xmlns="http://www.w3.org/2000/svg">
<path d="M20.0002 3.75C16.6056 3.75 13.8506 6.49296 13.7771 9.87061C10.7757 9.51062 8.82119 8.38844 7.62227 7.28271C6.29269 6.05648 5.87178 4.96704 5.87178 4.96704C5.81033 4.81221 5.70875 4.67655 5.57747 4.57401C5.44619 4.47147 5.28997 4.40576 5.12487 4.38363C4.95977 4.3615 4.79176 4.38375 4.63811 4.4481C4.48447 4.51245 4.35074 4.61657 4.25069 4.74976C4.25069 4.74976 3.1252 6.25 3.1252 8.4375C3.1252 9.68812 3.52007 10.6135 3.99068 11.3977C3.97334 11.3896 3.8564 11.3489 3.8564 11.3489C3.70698 11.2743 3.54035 11.2409 3.37373 11.2523C3.20711 11.2637 3.04655 11.3193 2.90866 11.4136C2.77076 11.5078 2.66053 11.6371 2.58937 11.7882C2.5182 11.9393 2.48868 12.1066 2.50386 12.2729C2.50386 12.2729 2.8647 14.9105 5.34444 16.8384L5.08565 16.9031C4.94517 16.9381 4.81473 17.0053 4.70454 17.0992C4.59434 17.1931 4.5074 17.3113 4.45053 17.4444C4.39365 17.5776 4.36838 17.7221 4.3767 17.8666C4.38502 18.0112 4.42671 18.1518 4.49849 18.2776C4.49849 18.2776 4.91898 18.9889 5.79976 19.7375C6.32198 20.1814 7.08912 20.6395 7.99336 21.0632C6.88287 21.469 5.22696 21.875 2.8127 21.875C2.63255 21.875 2.4562 21.9269 2.30476 22.0244C2.15332 22.122 2.0332 22.2612 1.95877 22.4252C1.88433 22.5893 1.85874 22.7713 1.88505 22.9495C1.91137 23.1278 1.98847 23.2946 2.10713 23.4302C2.10713 23.4302 2.82353 24.2194 4.2397 24.906C5.65588 25.5926 7.83737 26.25 10.9377 26.25C16.3875 26.25 20.3031 23.6357 22.7468 20.3223C25.1905 17.0088 26.2502 13.0382 26.2502 10C26.2502 9.80722 26.2382 9.61715 26.2209 9.42871C27.5404 8.15725 28.0356 7.2014 28.0593 7.15454C28.178 6.91642 28.1338 6.63043 27.9494 6.44043C27.7657 6.2498 27.4808 6.19612 27.239 6.30737L27.1377 6.35376C27.0508 6.39376 26.9639 6.43401 26.8764 6.47339C27.1308 6.06776 27.3315 5.6343 27.4709 5.18555C27.5484 4.93805 27.4647 4.66684 27.2597 4.50684C27.0547 4.34684 26.7724 4.32971 26.5505 4.46533C25.7866 4.9296 25.0544 5.25462 24.2922 5.47241C23.1706 4.40842 21.6607 3.75 20.0002 3.75ZM20.0002 5.625C22.4272 5.625 24.3752 7.57301 24.3752 10C24.3752 12.5868 23.4037 16.2724 21.238 19.209C19.0723 22.1455 15.8004 24.375 10.9377 24.375C8.58445 24.375 7.01907 23.9493 5.84615 23.4888C7.07479 23.298 8.13267 23.0434 8.89302 22.749C10.2116 22.2386 10.9231 21.6492 10.9231 21.6492C11.0536 21.5372 11.1507 21.3914 11.204 21.2279C11.2572 21.0643 11.2644 20.8893 11.2248 20.722C11.1853 20.5546 11.1004 20.4013 10.9796 20.2789C10.8588 20.1566 10.7066 20.0698 10.5398 20.0281C8.83805 19.6027 7.74666 18.9146 7.06197 18.3411L8.03975 18.0969C8.23312 18.0487 8.40608 17.94 8.53353 17.7868C8.66098 17.6336 8.7363 17.4438 8.74854 17.2448C8.76079 17.0459 8.70933 16.8483 8.60163 16.6806C8.49393 16.5129 8.3356 16.3839 8.14961 16.3123C6.12141 15.5322 5.26972 14.429 4.83418 13.5046C5.36417 13.6144 5.85764 13.75 6.5627 13.75C6.77383 13.7498 6.97872 13.6784 7.14421 13.5473C7.30969 13.4162 7.42607 13.233 7.47452 13.0275C7.52296 12.822 7.50063 12.6062 7.41113 12.415C7.32164 12.2238 7.17022 12.0683 6.9814 11.9739C6.9814 11.9739 5.0002 11.0625 5.0002 8.4375C5.0002 7.96622 5.13073 7.66772 5.22603 7.31079C5.55302 7.75022 5.8225 8.17412 6.3503 8.66089C7.95947 10.145 10.6192 11.6582 14.6377 11.8738C14.7648 11.8806 14.892 11.8614 15.0115 11.8174C15.131 11.7734 15.2403 11.7055 15.3327 11.6179C15.4251 11.5303 15.4987 11.4248 15.549 11.3078C15.5993 11.1908 15.6252 11.0648 15.6252 10.9375V10C15.6252 7.57301 17.5732 5.625 20.0002 5.625Z" fill="#EEEEE1"/>
</svg>
